<svg width="43" height="43" viewBox="0 0 43 43" fill="none" xmlns="http://www.w3.org/2000/svg">
<path d="M42.9999 21.5C42.9999 16.5259 41.2752 11.7056 38.1196 7.86059C34.9641 4.01554 30.5729 1.38358 25.6944 0.413178C20.8158 -0.557227 15.7517 0.193961 11.3649 2.53875C6.97816 4.88354 3.5401 8.67684 1.63659 13.2723C-0.266929 17.8678 -0.518132 22.9812 0.92578 27.7411C2.36969 32.5011 5.41938 36.6131 9.55522 39.3766C13.6911 42.14 18.6571 43.384 23.6073 42.8964C28.5575 42.4089 33.1855 40.22 36.7027 36.7028L30.4997 30.4998C28.4176 32.5819 25.6779 33.8777 22.7475 34.1663C19.8171 34.4549 16.8772 33.7185 14.4289 32.0826C11.9806 30.4467 10.1752 28.0124 9.32042 25.1946C8.46565 22.3768 8.61436 19.3498 9.74121 16.6294C10.8681 13.9089 12.9033 11.6634 15.5002 10.2753C18.0971 8.88722 21.095 8.44253 23.983 9.017C26.871 9.59146 29.4705 11.1495 31.3385 13.4257C33.2065 15.7019 34.2275 18.5554 34.2275 21.5H42.9999Z" fill="white"/>
</svg>
